PathFileType	4	(X/Y/Z)	c:/Users/goper/Files/vsCode/490R/osim_files/C17/C17_Slow_03.trc
DataRate	CameraRate	NumFrames	NumMarkers	Units                	OrigDataRate	OrigDataStartFrame	OrigNumFrames
250.00	250.00	5	36	mm	250.0	892	2377
                Frame#	Time	LPSIS			LASIS			LTH1			LTH2			LTH3			LTH4			LLFE			LMFE			LSH1			LSH2			LSH3			LSH4			LLMAL			LMMAL			LCAL			LMTP5			LTOE			LMTP1			RPSIS			RASIS			RTH1			RTH2			RTH3			RTH4			RLFE			RMFE			RSH1			RSH2			RSH3			RSH4			RLMAL			RMMAL			RCAL			RMTP1			RTOE			RMTP5		
		X1	Y1	Z1	X2	Y2	Z2	X3	Y3	Z3	X4	Y4	Z4	X5	Y5	Z5	X6	Y6	Z6	X7	Y7	Z7	X8	Y8	Z8	X9	Y9	Z9	X10	Y10	Z10	X11	Y11	Z11	X12	Y12	Z12	X13	Y13	Z13	X14	Y14	Z14	X15	Y15	Z15	X16	Y16	Z16	X17	Y17	Z17	X18	Y18	Z18	X19	Y19	Z19	X20	Y20	Z20	X21	Y21	Z21	X22	Y22	Z22	X23	Y23	Z23	X24	Y24	Z24	X25	Y25	Z25	X26	Y26	Z26	X27	Y27	Z27	X28	Y28	Z28	X29	Y29	Z29	X30	Y30	Z30	X31	Y31	Z31	X32	Y32	Z32	X33	Y33	Z33	X34	Y34	Z34	X35	Y35	Z35	X36	Y36	Z36

892	3.56400	1680.51599	1087.38330	268.73746	0.00000	0.00000	0.00000	1584.73413	711.53674	387.07880	1570.33447	663.47546	376.99405	0.00000	0.00000	0.00000	0.00000	0.00000	0.00000	1578.52612	502.40619	339.12964	1575.86169	511.55707	216.37479	1604.23938	271.75327	324.73138	0.00000	0.00000	0.00000	1662.09009	276.48758	319.90063	1664.89758	234.36688	313.43512	1660.84216	93.63896	281.26749	1650.66528	106.13603	195.01157	1740.46387	59.43700	237.44580	1546.74902	37.14113	300.14325	0.00000	0.00000	0.00000	0.00000	0.00000	0.00000	1674.56299	1081.29712	195.17250	0.00000	0.00000	0.00000	1466.00171	765.29901	30.42266	1450.23523	722.58508	34.63231	0.00000	0.00000	0.00000	0.00000	0.00000	0.00000	1366.17358	519.60663	55.39280	1376.32471	527.40967	183.46686	1479.85547	339.66367	48.63995	1483.21631	295.20261	59.53365	0.00000	0.00000	0.00000	0.00000	0.00000	0.00000	1517.57300	125.43665	88.93826	1475.24390	135.21352	175.19868	1585.41589	95.57454	143.54324	0.00000	0.00000	0.00000	0.00000	0.00000	0.00000	1403.80139	52.12176	51.91568
893	3.56800	1675.88672	1087.11816	268.53741	1480.22498	1036.38135	369.52551	1582.29639	711.79773	387.12509	1568.03967	663.51196	376.96744	1523.35107	719.68982	390.98114	0.00000	0.00000	0.00000	1577.41760	502.51114	339.22998	1574.69702	511.67496	216.47906	1603.84802	271.90649	324.85092	1610.63574	224.17191	311.85519	1661.60706	276.75275	319.98730	1664.50085	234.62317	313.50055	1660.68762	93.79057	281.27353	1650.45837	106.30325	195.04416	1740.40588	59.69045	237.47798	1546.44409	37.02666	299.99088	1490.92786	54.97048	233.12617	0.00000	0.00000	0.00000	1669.81763	1081.04297	194.98070	0.00000	0.00000	0.00000	1459.95471	765.39966	30.78535	1444.23474	722.69012	34.90690	0.00000	0.00000	0.00000	1390.26379	735.02032	47.93112	1358.94421	520.07977	56.03237	1369.82617	527.47546	184.09364	1468.27722	337.47360	49.05243	1470.66150	293.01920	60.02029	0.00000	0.00000	0.00000	0.00000	0.00000	0.00000	1500.40491	121.30863	89.86341	1459.55212	133.34753	175.78128	1568.46191	91.59643	143.70268	0.00000	0.00000	0.00000	1323.67676	79.53944	113.83781	1385.86328	51.51949	52.68179
894	3.57200	1671.26245	1086.82300	268.31503	0.00000	0.00000	0.00000	1579.83289	711.99994	387.13275	1565.51917	663.43341	376.89853	0.00000	0.00000	0.00000	0.00000	0.00000	0.00000	1576.30627	502.64450	339.28287	1573.50085	511.78082	216.57767	1603.27100	271.98798	324.96509	1610.34521	224.33307	311.99829	1661.07324	276.98953	320.07953	1664.05286	234.92009	313.55643	1660.59973	93.96972	281.28287	1650.44568	107.73705	196.04420	1740.31091	59.93158	237.45065	1546.43848	37.04308	299.99371	0.00000	0.00000	0.00000	0.00000	0.00000	0.00000	1665.00623	1080.73120	194.77502	0.00000	0.00000	0.00000	0.00000	0.00000	0.00000	1439.62805	723.55200	34.79995	1394.82483	780.26300	47.63763	0.00000	0.00000	0.00000	1351.73535	520.50732	56.84301	0.00000	0.00000	0.00000	1456.08716	334.91681	49.73779	1458.11035	290.87363	60.49451	0.00000	0.00000	0.00000	0.00000	0.00000	0.00000	1484.59583	119.74112	90.01021	1445.21033	131.79054	176.53667	0.00000	0.00000	0.00000	0.00000	0.00000	0.00000	1306.46875	80.43176	114.91900	1367.92285	51.10068	53.54711
895	3.57600	1666.59985	1086.48145	268.09918	0.00000	0.00000	0.00000	1577.28552	712.12842	387.06836	1563.09338	663.44110	376.83948	1519.05457	721.31805	391.80957	0.00000	0.00000	0.00000	1575.09412	502.73395	339.36020	1572.20947	511.84015	216.70634	1602.84216	272.10809	325.10406	0.00000	0.00000	0.00000	1660.59375	277.30679	320.16357	1663.64966	235.18729	313.60260	1660.45422	94.16219	281.26294	1650.34290	107.90852	196.10936	1740.24683	60.21734	237.44475	1546.43542	37.05314	300.00449	0.00000	0.00000	0.00000	0.00000	0.00000	0.00000	1660.23059	1080.38757	194.59622	0.00000	0.00000	0.00000	1448.10669	765.23480	31.63130	1432.57935	722.81287	35.42719	0.00000	0.00000	0.00000	0.00000	0.00000	0.00000	1343.73193	519.43091	58.58413	0.00000	0.00000	0.00000	1445.14148	333.38760	49.99094	1445.60864	288.85715	61.00581	0.00000	0.00000	0.00000	0.00000	0.00000	0.00000	1468.42810	114.61896	92.10175	1428.50464	130.27109	176.75443	0.00000	0.00000	0.00000	1299.97888	55.80275	161.88376	1289.21838	81.71547	115.71048	1350.09436	50.68837	54.36472
896	3.58000	1661.89880	1086.06372	267.90356	0.00000	0.00000	0.00000	1574.78687	712.34845	387.09128	0.00000	0.00000	0.00000	1516.46375	721.03857	391.75403	0.00000	0.00000	0.00000	1573.84436	502.81540	339.44095	1570.91199	511.90604	216.83098	1602.25830	272.15585	325.24957	0.00000	0.00000	0.00000	1660.02112	277.56689	320.23560	1663.18079	235.45454	313.66290	1660.30542	94.40129	281.27121	1649.98364	106.75105	195.13318	1740.18921	60.46090	237.45908	1546.38159	37.03070	300.00388	0.00000	0.00000	0.00000	1520.47095	46.51273	183.38927	1655.40942	1080.01428	194.37895	0.00000	0.00000	0.00000	1442.52319	765.11670	31.85389	1426.84839	722.71948	35.74342	1383.47388	780.32208	49.03345	1372.87793	734.09698	48.34419	1336.73047	519.73969	59.34092	1350.49805	527.23328	185.99159	1433.06641	330.97299	50.74792	0.00000	0.00000	0.00000	0.00000	0.00000	0.00000	0.00000	0.00000	0.00000	1451.89709	112.17279	92.71731	1412.71106	128.56770	177.24335	0.00000	0.00000	0.00000	1283.18396	56.97631	162.45074	1272.47888	83.19965	116.03883	1332.24622	50.43135	55.22419
